<svg width="63" height="64" viewBox="0 0 63 64" fill="none" xmlns="http://www.w3.org/2000/svg">
<path d="M55.8043 23.4078C59.4587 17.7888 57.8661 10.2712 52.2471 6.61686C46.6281 2.96247 39.1105 4.5551 35.4561 10.1741L26.6337 23.7395C22.9793 29.3585 24.5719 36.8761 30.1909 40.5305C35.8099 44.1849 43.3275 42.5922 46.9819 36.9733L55.8043 23.4078Z" stroke="#FFBA00" stroke-width="7" stroke-linecap="round"/>
<path d="M35.7875 39.3443C39.4419 33.7253 37.8492 26.2078 32.2302 22.5534C26.6112 18.899 19.0937 20.4916 15.4393 26.1106L6.61682 39.6761C2.96244 45.2951 4.55506 52.8126 10.1741 56.467C15.7931 60.1214 23.3106 58.5288 26.965 52.9098L35.7875 39.3443Z" stroke="#FFBA00" stroke-width="7" stroke-linecap="round"/>
</svg>
