<svg width="79" height="79" viewBox="0 0 79 79" fill="none" xmlns="http://www.w3.org/2000/svg">
<path d="M69.7175 19.75L42.5613 4.19689C41.6244 3.67815 40.571 3.40601 39.5 3.40601C38.4291 3.40601 37.3757 3.67815 36.4388 4.19689L9.28254 19.75C8.33427 20.2917 7.54669 21.0752 7.00021 22.0207C6.45373 22.9662 6.1679 24.0398 6.17192 25.1319V54.3125C6.24289 55.3282 6.56407 56.3106 7.10681 57.1721C7.64955 58.0336 8.397 58.7475 9.28254 59.25L36.4388 74.6056C37.3757 75.1244 38.4291 75.3965 39.5 75.3965C40.571 75.3965 41.6244 75.1244 42.5613 74.6056L69.7175 59.25C70.6031 58.7475 71.3505 58.0336 71.8933 57.1721C72.436 56.3106 72.7572 55.3282 72.8282 54.3125V24.9344C72.7979 23.876 72.4959 22.8432 71.9512 21.9352C71.4064 21.0273 70.6372 20.2748 69.7175 19.75ZM36.4388 67.6931L25.9219 61.7681V35.5994L36.4388 41.3269V67.6931ZM39.5 35.9944L29.23 30.3656L52.9794 17.1825L63.2988 23.0088L39.5 35.9944ZM39.5 9.57876L46.7088 13.6275L22.8113 26.9094L15.7013 23.0088L39.5 9.57876ZM12.3438 28.1931L19.75 32.2419V58.2625L12.3438 54.3125V28.1931ZM42.5613 67.6931V41.3269L66.6563 28.1931V54.3125L42.5613 67.6931Z" fill="#FFBA00"/>
</svg>
