<svg width="65" height="65" viewBox="0 0 65 65" fill="none" xmlns="http://www.w3.org/2000/svg">
<path d="M32.5002 0L3.79468 16.5721C3.79468 22.5993 4.36673 27.8628 5.32535 32.5C11.2494 61.156 32.5002 65 32.5002 65C32.5002 65 53.7507 61.156 59.6749 32.5C60.6335 27.8628 61.2055 22.5994 61.2055 16.5721L32.5002 0ZM32.515 59.2519C32.5106 59.2504 32.5046 59.2484 32.5002 59.247V53.1949V32.5H17.8712H11.5683C10.7215 28.7247 10.1579 24.4377 9.99481 19.5597L32.4999 6.56703H32.5002V13.1343V32.5H47.1341H53.4341C48.9577 52.4829 36.4771 57.9889 32.515 59.2519Z" fill="#FFBA00"/>
</svg>
