<svg width="53" height="61" viewBox="0 0 53 61" fill="none" xmlns="http://www.w3.org/2000/svg">
<path d="M44.587 25.3435H43.4552V16.9553C43.4571 12.2846 41.5509 8.02341 38.4885 4.96674C35.4318 1.90256 31.1706 -0.00190482 26.4999 1.42969e-06C21.8293 -0.00190482 17.5681 1.90256 14.5114 4.96674C11.4491 8.02341 9.54289 12.2846 9.54659 16.9553V25.3435H8.41284C4.30809 25.3435 0.981445 28.672 0.981445 32.7749V53.5686C0.981445 57.6716 4.30809 61 8.41284 61H44.5869C48.6917 61 52.0183 57.6714 52.0183 53.5686V32.7749C52.0184 28.6719 48.6918 25.3435 44.587 25.3435ZM16.8868 16.9553C16.8887 14.2876 17.9572 11.9067 19.7015 10.1567C21.4533 8.41061 23.8342 7.34204 26.4999 7.34204C29.1657 7.34204 31.5466 8.41061 33.2966 10.1567C35.0427 11.9067 36.1112 14.2876 36.1132 16.9553V25.3435H16.8868V16.9553ZM28.6482 45.4726L29.8191 53.0623H26.4999H23.1808L24.3499 45.4726C22.5032 44.6479 21.2132 42.8013 21.2132 40.6493C21.2132 37.7304 23.5792 35.3625 26.5001 35.3625C29.419 35.3625 31.7869 37.7304 31.7869 40.6493C31.7868 42.8013 30.4948 44.6479 28.6482 45.4726Z" fill="#FFBA00"/>
</svg>
