<svg width="277" height="55" viewBox="0 0 277 55" fill="none" xmlns="http://www.w3.org/2000/svg">
<g clip-path="url(#clip0_8_284)">
<path d="M16.7296 23.1115L27.5061 12.4308L38.2882 23.1171L44.5587 16.9021L27.5061 0L10.4591 16.8965L16.7296 23.1115Z" fill="#F3BA2F"/>
<path d="M12.3015 27.4991L6.03113 21.2842L-0.239566 27.4994L6.03082 33.7142L12.3015 27.4991Z" fill="#F3BA2F"/>
<path d="M16.7296 31.8885L27.5061 42.5691L38.2878 31.8833L44.5618 38.0948L44.5588 38.0983L27.5061 55L10.4587 38.1039L10.45 38.0952L16.7296 31.8885Z" fill="#F3BA2F"/>
<path d="M48.9817 33.7171L55.2524 27.502L48.9821 21.2871L42.7114 27.5023L48.9817 33.7171Z" fill="#F3BA2F"/>
<path d="M33.8664 27.4968H33.869L27.5061 21.1902L22.8037 25.8509H22.8033L22.2633 26.3865L21.1488 27.4912L21.14 27.4999L21.1488 27.509L27.5061 33.81L33.869 27.5033L33.8721 27.4999L33.8664 27.4968Z" fill="#F3BA2F"/>
<path d="M65.0278 13.3269H78.6658C82.0507 13.3269 84.6102 14.1879 86.345 15.9099C87.6874 17.2435 88.3584 18.8964 88.3584 20.8681V20.9515C88.3584 21.7847 88.2546 22.521 88.0455 23.1596C87.8369 23.799 87.5581 24.3746 87.2097 24.8885C86.8621 25.4028 86.458 25.8542 85.9987 26.2425C85.539 26.6318 85.045 26.9654 84.516 27.2425C86.2174 27.882 87.5568 28.7495 88.5333 29.8468C89.5094 30.9445 89.998 32.4653 89.998 34.4093V34.4922C89.998 35.8259 89.7395 36.9922 89.2218 37.9927C88.7042 38.9922 87.9627 39.8258 86.9971 40.4926C86.0316 41.1594 84.8706 41.659 83.5137 41.9926C82.1567 42.3258 80.653 42.4922 79.0029 42.4922H65.0278V13.3269ZM77.3023 25.1179C78.732 25.1179 79.8672 24.8755 80.7074 24.3889C81.548 23.9028 81.9683 23.1179 81.9683 22.0349V21.9515C81.9683 20.9798 81.6036 20.2369 80.8752 19.7226C80.1464 19.2087 79.0954 18.9515 77.7227 18.9515H71.3329V25.1179H77.3023ZM79.0261 36.868C80.4553 36.868 81.5756 36.6117 82.389 36.0974C83.2016 35.5835 83.6083 34.7846 83.6083 33.7012V33.6182C83.6083 32.646 83.2297 31.8754 82.4732 31.3055C81.7163 30.7368 80.4974 30.4519 78.8157 30.4519H71.3329V36.8684L79.0261 36.868Z" fill="#F3BA2F"/>
<path d="M98.1202 13.3269H104.595V42.4931H98.1202V13.3269Z" fill="#F3BA2F"/>
<path d="M114.4 13.3269H120.369L134.158 31.2851V13.3269H140.547V42.4931H135.041L120.79 23.9519V42.4931H114.4V13.3269Z" fill="#F3BA2F"/>
<path d="M160.147 13.1189H166.116L178.728 42.4931H171.96L169.269 35.9519H156.826L154.136 42.4931H147.535L160.147 13.1189ZM166.957 30.2847L163.047 20.8269L159.139 30.2847H166.957Z" fill="#F3BA2F"/>
<path d="M185.717 13.3269H191.686L205.474 31.2851V13.3269H211.864V42.4931H206.357L192.106 23.9519V42.4931H185.717V13.3269Z" fill="#F3BA2F"/>
<path d="M235.163 42.9926C233.004 42.9926 231.001 42.6034 229.151 41.8262C227.301 41.0491 225.704 39.9861 224.359 38.6386C223.013 37.2915 221.962 35.7012 221.206 33.868C220.449 32.0344 220.071 30.0761 220.071 27.9927V27.9098C220.071 25.8264 220.449 23.8755 221.206 22.0558C221.962 20.2365 223.013 18.6392 224.359 17.2643C225.704 15.8894 227.316 14.8056 229.193 14.0141C231.07 13.2226 233.145 12.8269 235.415 12.8269C236.787 12.8269 238.041 12.9385 239.176 13.1601C240.311 13.3829 241.341 13.6879 242.267 14.0767C243.192 14.4659 244.046 14.9381 244.831 15.4933C245.615 16.0493 246.344 16.6601 247.017 17.3269L242.898 22.0349C241.747 21.0076 240.578 20.2013 239.387 19.6183C238.195 19.0354 236.858 18.7435 235.372 18.7435C234.139 18.7435 232.997 18.9798 231.947 19.452C230.896 19.9242 229.992 20.5766 229.235 21.4098C228.479 22.243 227.89 23.2087 227.469 24.3055C227.049 25.4033 226.84 26.5766 226.84 27.8264V27.9093C226.84 29.1591 227.049 30.3402 227.469 31.4506C227.89 32.5622 228.47 33.534 229.214 34.3671C229.956 35.2003 230.853 35.8606 231.904 36.3467C232.956 36.8332 234.112 37.0756 235.372 37.0756C237.055 37.0756 238.475 36.7702 239.639 36.159C240.802 35.5487 241.959 34.7151 243.107 33.6591L247.227 37.7841C246.47 38.59 245.684 39.3124 244.873 39.9505C244.06 40.5899 243.17 41.1381 242.203 41.5969C241.237 42.0547 240.178 42.4027 239.03 42.6381C237.88 42.874 236.591 42.9926 235.163 42.9926Z" fill="#F3BA2F"/>
<path d="M254.846 13.3269H277V19.0354H261.236V24.9519H275.109V30.66H261.236V36.785H277.211V42.4931H254.846V13.3269Z" fill="#F3BA2F"/>
</g>
<defs>
<clipPath id="clip0_8_284">
<rect width="277" height="55" fill="white"/>
</clipPath>
</defs>
</svg>
